<mxfile host="65bd71144e">
    <diagram id="T8pmpTCMuDaPm9wjzUCa" name="Page-1">
        <mxGraphModel dx="2826" dy="1612" grid="1" gridSize="10" guides="1" tooltips="1" connect="1" arrows="1" fold="1" page="1" pageScale="1" pageWidth="827" pageHeight="1169" background="none" math="0" shadow="0">
            <root>
                <mxCell id="0"/>
                <mxCell id="1" parent="0"/>
                <mxCell id="2" value="beacon_node::network::NetworkService" style="rounded=0;whiteSpace=wrap;html=1;fontStyle=1" parent="1" vertex="1">
                    <mxGeometry x="115" y="160" width="280" height="60" as="geometry"/>
                </mxCell>
                <mxCell id="3" value="" style="endArrow=none;html=1;" parent="1" edge="1">
                    <mxGeometry width="50" height="50" relative="1" as="geometry">
                        <mxPoint x="250" y="1730" as="sourcePoint"/>
                        <mxPoint x="250" y="230" as="targetPoint"/>
                    </mxGeometry>
                </mxCell>
                <mxCell id="7" value="beacon_node::network::AttestationService" style="rounded=0;whiteSpace=wrap;html=1;fontStyle=1" parent="1" vertex="1">
                    <mxGeometry x="600" y="170" width="260" height="60" as="geometry"/>
                </mxCell>
                <mxCell id="8" value="" style="endArrow=classic;html=1;startArrow=none;exitX=1;exitY=0.062;exitDx=0;exitDy=0;exitPerimeter=0;" parent="1" edge="1" source="67">
                    <mxGeometry width="50" height="50" relative="1" as="geometry">
                        <mxPoint x="250" y="370" as="sourcePoint"/>
                        <mxPoint x="670" y="361" as="targetPoint"/>
                    </mxGeometry>
                </mxCell>
                <mxCell id="10" value="" style="endArrow=none;html=1;" parent="1" edge="1">
                    <mxGeometry width="50" height="50" relative="1" as="geometry">
                        <mxPoint x="734.5" y="1230" as="sourcePoint"/>
                        <mxPoint x="734.5" y="230" as="targetPoint"/>
                    </mxGeometry>
                </mxCell>
                <mxCell id="11" value="######################################&lt;br&gt;AttestationService and long-lived subnets&lt;br&gt;######################################" style="shape=note;whiteSpace=wrap;html=1;backgroundOutline=1;darkOpacity=0.05;fontStyle=1" parent="1" vertex="1">
                    <mxGeometry x="90" y="40" width="480" height="100" as="geometry"/>
                </mxCell>
                <mxCell id="14" value="beacon_node::lighthouse_network::Network" style="rounded=0;whiteSpace=wrap;html=1;fontStyle=1" parent="1" vertex="1">
                    <mxGeometry x="980" y="1420" width="280" height="60" as="geometry"/>
                </mxCell>
                <mxCell id="17" value="" style="endArrow=none;html=1;" parent="1" edge="1">
                    <mxGeometry width="50" height="50" relative="1" as="geometry">
                        <mxPoint x="1120" y="1960" as="sourcePoint"/>
                        <mxPoint x="1120" y="1480" as="targetPoint"/>
                    </mxGeometry>
                </mxCell>
                <mxCell id="68" value="" style="endArrow=none;html=1;" edge="1" parent="1" target="67">
                    <mxGeometry width="50" height="50" relative="1" as="geometry">
                        <mxPoint x="250" y="370" as="sourcePoint"/>
                        <mxPoint x="720" y="370" as="targetPoint"/>
                    </mxGeometry>
                </mxCell>
                <mxCell id="67" value="build()" style="html=1;dashed=0;whitespace=wrap;" vertex="1" parent="1">
                    <mxGeometry x="205" y="340" width="100" height="340" as="geometry"/>
                </mxCell>
                <mxCell id="70" value="new()" style="html=1;dashed=0;whitespace=wrap;" vertex="1" parent="1">
                    <mxGeometry x="680" y="340" width="100" height="310" as="geometry"/>
                </mxCell>
                <mxCell id="71" value="subscribe_all_subnets?" style="shape=rhombus;html=1;dashed=0;whitespace=wrap;perimeter=rhombusPerimeter;" vertex="1" parent="1">
                    <mxGeometry x="835.25" y="387.5" width="213.5" height="90" as="geometry"/>
                </mxCell>
                <mxCell id="72" value="recompute_long_lived_subnets()" style="html=1;dashed=0;whitespace=wrap;" vertex="1" parent="1">
                    <mxGeometry x="827" y="552.5" width="230" height="50" as="geometry"/>
                </mxCell>
                <mxCell id="73" value="" style="endArrow=classic;html=1;entryX=0.5;entryY=0;entryDx=0;entryDy=0;exitX=0.5;exitY=1;exitDx=0;exitDy=0;" edge="1" parent="1" source="71" target="72">
                    <mxGeometry width="50" height="50" relative="1" as="geometry">
                        <mxPoint x="562" y="617.5" as="sourcePoint"/>
                        <mxPoint x="612" y="567.5" as="targetPoint"/>
                        <Array as="points">
                            <mxPoint x="942" y="522.5"/>
                        </Array>
                    </mxGeometry>
                </mxCell>
                <mxCell id="74" value="No" style="edgeLabel;html=1;align=center;verticalAlign=middle;resizable=0;points=[];fontStyle=1" vertex="1" connectable="0" parent="73">
                    <mxGeometry x="-0.5047" relative="1" as="geometry">
                        <mxPoint y="14" as="offset"/>
                    </mxGeometry>
                </mxCell>
                <mxCell id="75" value="" style="endArrow=classic;html=1;startArrow=none;" edge="1" parent="1">
                    <mxGeometry width="50" height="50" relative="1" as="geometry">
                        <mxPoint x="680" y="620" as="sourcePoint"/>
                        <mxPoint x="310" y="620" as="targetPoint"/>
                    </mxGeometry>
                </mxCell>
                <mxCell id="77" value="AttestationService" style="edgeLabel;html=1;align=center;verticalAlign=middle;resizable=0;points=[];" vertex="1" connectable="0" parent="75">
                    <mxGeometry x="0.2649" y="-1" relative="1" as="geometry">
                        <mxPoint x="54" y="-16" as="offset"/>
                    </mxGeometry>
                </mxCell>
                <mxCell id="78" value="spawn_service()" style="html=1;dashed=0;whitespace=wrap;" vertex="1" parent="1">
                    <mxGeometry x="205" y="800" width="100" height="840" as="geometry"/>
                </mxCell>
                <mxCell id="76" value="" style="endArrow=classic;html=1;startArrow=none;entryX=0.5;entryY=0;entryDx=0;entryDy=0;exitX=1.02;exitY=0.061;exitDx=0;exitDy=0;exitPerimeter=0;" edge="1" parent="1" source="70" target="71">
                    <mxGeometry width="50" height="50" relative="1" as="geometry">
                        <mxPoint x="315" y="390.2941176470588" as="sourcePoint"/>
                        <mxPoint x="690" y="505" as="targetPoint"/>
                        <Array as="points">
                            <mxPoint x="940" y="360"/>
                        </Array>
                    </mxGeometry>
                </mxCell>
                <mxCell id="80" value="poll_next()" style="html=1;dashed=0;whitespace=wrap;" vertex="1" parent="1">
                    <mxGeometry x="680" y="800" width="100" height="340" as="geometry"/>
                </mxCell>
                <mxCell id="81" value="" style="endArrow=classic;html=1;startArrow=none;exitX=1;exitY=0.062;exitDx=0;exitDy=0;exitPerimeter=0;" edge="1" parent="1">
                    <mxGeometry width="50" height="50" relative="1" as="geometry">
                        <mxPoint x="315" y="840.0799999999999" as="sourcePoint"/>
                        <mxPoint x="680" y="840" as="targetPoint"/>
                    </mxGeometry>
                </mxCell>
                <mxCell id="82" value="subscribe_all_subnets?" style="shape=rhombus;html=1;dashed=0;whitespace=wrap;perimeter=rhombusPerimeter;" vertex="1" parent="1">
                    <mxGeometry x="838.25" y="868.5899999999999" width="213.5" height="90" as="geometry"/>
                </mxCell>
                <mxCell id="83" value="recompute_long_lived_subnets()" style="html=1;dashed=0;whitespace=wrap;" vertex="1" parent="1">
                    <mxGeometry x="830" y="1033.59" width="230" height="176.41" as="geometry"/>
                </mxCell>
                <mxCell id="84" value="" style="endArrow=classic;html=1;entryX=0.5;entryY=0;entryDx=0;entryDy=0;exitX=0.5;exitY=1;exitDx=0;exitDy=0;" edge="1" parent="1" source="82" target="83">
                    <mxGeometry width="50" height="50" relative="1" as="geometry">
                        <mxPoint x="565" y="1098.59" as="sourcePoint"/>
                        <mxPoint x="615" y="1048.59" as="targetPoint"/>
                        <Array as="points">
                            <mxPoint x="945" y="1003.5899999999999"/>
                        </Array>
                    </mxGeometry>
                </mxCell>
                <mxCell id="85" value="No" style="edgeLabel;html=1;align=center;verticalAlign=middle;resizable=0;points=[];fontStyle=1" vertex="1" connectable="0" parent="84">
                    <mxGeometry x="-0.5047" relative="1" as="geometry">
                        <mxPoint y="14" as="offset"/>
                    </mxGeometry>
                </mxCell>
                <mxCell id="86" value="" style="endArrow=classic;html=1;startArrow=none;entryX=0.5;entryY=0;entryDx=0;entryDy=0;exitX=1.02;exitY=0.061;exitDx=0;exitDy=0;exitPerimeter=0;" edge="1" parent="1" target="82">
                    <mxGeometry width="50" height="50" relative="1" as="geometry">
                        <mxPoint x="785" y="840" as="sourcePoint"/>
                        <mxPoint x="693" y="986.0899999999999" as="targetPoint"/>
                        <Array as="points">
                            <mxPoint x="943" y="841.0899999999999"/>
                        </Array>
                    </mxGeometry>
                </mxCell>
                <mxCell id="87" value="" style="endArrow=classic;html=1;startArrow=none;" edge="1" parent="1">
                    <mxGeometry width="50" height="50" relative="1" as="geometry">
                        <mxPoint x="680" y="1120" as="sourcePoint"/>
                        <mxPoint x="310" y="1120" as="targetPoint"/>
                    </mxGeometry>
                </mxCell>
                <mxCell id="88" value="SubnetServiceMessage" style="edgeLabel;html=1;align=center;verticalAlign=middle;resizable=0;points=[];" vertex="1" connectable="0" parent="87">
                    <mxGeometry x="0.2649" y="-1" relative="1" as="geometry">
                        <mxPoint x="54" y="-16" as="offset"/>
                    </mxGeometry>
                </mxCell>
                <mxCell id="89" value="Loop" style="html=1;dashed=0;whitespace=wrap;shape=mxgraph.dfd.loop" vertex="1" parent="1">
                    <mxGeometry x="215" y="770" width="80" height="30" as="geometry"/>
                </mxCell>
                <mxCell id="90" value="・SubnetServiceMessage::Subscribe(Subnet::Attestation(subnet_id)&lt;br&gt;・SubnetServiceMessage::EnrAdd(Subnet::Attestation(subnet_id)&lt;br&gt;・SubnetServiceMessage::DiscoverPeers(subnets)" style="shape=note;whiteSpace=wrap;html=1;backgroundOutline=1;darkOpacity=0.05;fontStyle=1" vertex="1" parent="1">
                    <mxGeometry x="450" y="1280" width="480" height="71" as="geometry"/>
                </mxCell>
                <mxCell id="92" value="update_long_lived_subnets()&lt;br&gt;&lt;br&gt;emits the following events.&lt;br&gt;・SubnetServiceMessage::Subscribe(Subnet::Attestation(subnet_id)&lt;br style=&quot;&quot;&gt;・SubnetServiceMessage::EnrAdd(Subnet::Attestation(subnet_id)&lt;br style=&quot;&quot;&gt;・SubnetServiceMessage::DiscoverPeers(subnets)" style="html=1;dashed=0;whitespace=wrap;" vertex="1" parent="1">
                    <mxGeometry x="1360" y="1070" width="410" height="110" as="geometry"/>
                </mxCell>
                <mxCell id="93" value="" style="endArrow=classic;html=1;startArrow=none;exitX=1;exitY=0.062;exitDx=0;exitDy=0;exitPerimeter=0;entryX=0;entryY=0.25;entryDx=0;entryDy=0;" edge="1" parent="1" target="92">
                    <mxGeometry width="50" height="50" relative="1" as="geometry">
                        <mxPoint x="1058" y="1080.08" as="sourcePoint"/>
                        <mxPoint x="1423" y="1080" as="targetPoint"/>
                    </mxGeometry>
                </mxCell>
                <mxCell id="94" value="" style="endArrow=classic;html=1;startArrow=none;entryX=1;entryY=0.75;entryDx=0;entryDy=0;exitX=0;exitY=0.75;exitDx=0;exitDy=0;" edge="1" parent="1" source="92" target="83">
                    <mxGeometry width="50" height="50" relative="1" as="geometry">
                        <mxPoint x="1400" y="1410" as="sourcePoint"/>
                        <mxPoint x="1370" y="1120" as="targetPoint"/>
                    </mxGeometry>
                </mxCell>
                <mxCell id="91" value="recompute_long_lived_subnets_inner()" style="html=1;dashed=0;whitespace=wrap;" vertex="1" parent="1">
                    <mxGeometry x="1100" y="1070" width="230" height="110" as="geometry"/>
                </mxCell>
                <mxCell id="97" value="on_attestation_service_msg()" style="html=1;dashed=0;whitespace=wrap;" vertex="1" parent="1">
                    <mxGeometry x="370" y="1240" width="60" height="340" as="geometry"/>
                </mxCell>
                <mxCell id="100" value="" style="endArrow=none;dashed=1;html=1;exitX=0.5;exitY=0;exitDx=0;exitDy=0;exitPerimeter=0;" edge="1" parent="1" source="90">
                    <mxGeometry width="50" height="50" relative="1" as="geometry">
                        <mxPoint x="1350" y="1240" as="sourcePoint"/>
                        <mxPoint x="520" y="1110" as="targetPoint"/>
                    </mxGeometry>
                </mxCell>
                <mxCell id="101" value="subscribe()" style="html=1;dashed=0;whitespace=wrap;" vertex="1" parent="1">
                    <mxGeometry x="1070" y="1530" width="100" height="50" as="geometry"/>
                </mxCell>
                <mxCell id="104" value="SubnetServiceMessage" style="shape=rhombus;html=1;dashed=0;whitespace=wrap;perimeter=rhombusPerimeter;" vertex="1" parent="1">
                    <mxGeometry x="530" y="1510" width="213.5" height="90" as="geometry"/>
                </mxCell>
                <mxCell id="105" value="" style="endArrow=classic;html=1;startArrow=none;exitX=1.067;exitY=0.554;exitDx=0;exitDy=0;entryX=0;entryY=0.5;entryDx=0;entryDy=0;exitPerimeter=0;" edge="1" parent="1" source="97" target="104">
                    <mxGeometry width="50" height="50" relative="1" as="geometry">
                        <mxPoint x="325" y="850.0799999999999" as="sourcePoint"/>
                        <mxPoint x="690" y="850" as="targetPoint"/>
                    </mxGeometry>
                </mxCell>
                <mxCell id="106" value="" style="endArrow=classic;html=1;startArrow=none;entryX=-0.067;entryY=0.116;entryDx=0;entryDy=0;entryPerimeter=0;" edge="1" parent="1" target="97">
                    <mxGeometry width="50" height="50" relative="1" as="geometry">
                        <mxPoint x="310" y="1280" as="sourcePoint"/>
                        <mxPoint x="540" y="1438" as="targetPoint"/>
                    </mxGeometry>
                </mxCell>
                <mxCell id="107" value="" style="endArrow=classic;html=1;startArrow=none;exitX=1;exitY=0.5;exitDx=0;exitDy=0;entryX=0;entryY=0.5;entryDx=0;entryDy=0;" edge="1" parent="1" source="104" target="101">
                    <mxGeometry width="50" height="50" relative="1" as="geometry">
                        <mxPoint x="444.02" y="1438.3600000000001" as="sourcePoint"/>
                        <mxPoint x="880" y="1510" as="targetPoint"/>
                    </mxGeometry>
                </mxCell>
                <mxCell id="108" value="&lt;span style=&quot;font-size: 12px; font-weight: 700; background-color: rgb(42, 37, 47);&quot;&gt;SubnetServiceMessage::Subscribe&lt;/span&gt;" style="edgeLabel;html=1;align=center;verticalAlign=middle;resizable=0;points=[];" vertex="1" connectable="0" parent="107">
                    <mxGeometry x="0.0779" y="3" relative="1" as="geometry">
                        <mxPoint x="-12" y="-23" as="offset"/>
                    </mxGeometry>
                </mxCell>
                <mxCell id="109" value="update_enr_subnet()" style="html=1;dashed=0;whitespace=wrap;" vertex="1" parent="1">
                    <mxGeometry x="1035" y="1720" width="170" height="50" as="geometry"/>
                </mxCell>
                <mxCell id="110" value="discover_subnet_peers()" style="html=1;dashed=0;whitespace=wrap;" vertex="1" parent="1">
                    <mxGeometry x="1035" y="1860" width="170" height="50" as="geometry"/>
                </mxCell>
                <mxCell id="111" value="" style="endArrow=classic;html=1;startArrow=none;exitX=1;exitY=0.5;exitDx=0;exitDy=0;entryX=0;entryY=0.5;entryDx=0;entryDy=0;" edge="1" parent="1" source="104" target="109">
                    <mxGeometry width="50" height="50" relative="1" as="geometry">
                        <mxPoint x="753.5" y="1565" as="sourcePoint"/>
                        <mxPoint x="1080" y="1565" as="targetPoint"/>
                    </mxGeometry>
                </mxCell>
                <mxCell id="112" value="&lt;span style=&quot;font-size: 12px; font-weight: 700; background-color: rgb(42, 37, 47);&quot;&gt;SubnetServiceMessage::EnrAdd&lt;/span&gt;" style="edgeLabel;html=1;align=center;verticalAlign=middle;resizable=0;points=[];" vertex="1" connectable="0" parent="111">
                    <mxGeometry x="0.0779" y="3" relative="1" as="geometry">
                        <mxPoint x="67" y="-5" as="offset"/>
                    </mxGeometry>
                </mxCell>
                <mxCell id="113" value="" style="endArrow=classic;html=1;startArrow=none;exitX=1;exitY=0.5;exitDx=0;exitDy=0;entryX=0;entryY=0.5;entryDx=0;entryDy=0;" edge="1" parent="1" source="104" target="110">
                    <mxGeometry width="50" height="50" relative="1" as="geometry">
                        <mxPoint x="753.5" y="1565" as="sourcePoint"/>
                        <mxPoint x="1045" y="1755" as="targetPoint"/>
                    </mxGeometry>
                </mxCell>
                <mxCell id="114" value="&lt;span style=&quot;font-size: 12px; font-weight: 700; background-color: rgb(42, 37, 47);&quot;&gt;SubnetServiceMessage::DiscoverPeers&lt;/span&gt;" style="edgeLabel;html=1;align=center;verticalAlign=middle;resizable=0;points=[];" vertex="1" connectable="0" parent="113">
                    <mxGeometry x="0.0779" y="3" relative="1" as="geometry">
                        <mxPoint x="27" y="89" as="offset"/>
                    </mxGeometry>
                </mxCell>
            </root>
        </mxGraphModel>
    </diagram>
</mxfile>